<svg width="145" height="19" viewBox="0 0 145 19" fill="none" xmlns="http://www.w3.org/2000/svg">
<path opacity="0.9" d="M144.419 16.51C143.639 17.1687 142.616 17.6887 141.351 18.07C140.085 18.434 138.707 18.616 137.217 18.616C135.553 18.616 134.14 18.3993 132.979 17.966C131.817 17.5153 130.942 16.9 130.353 16.12C129.763 15.34 129.469 14.4387 129.469 13.416C129.469 12.376 129.763 11.4833 130.353 10.738C130.959 9.97533 131.739 9.42933 132.693 9.1C131.93 8.75333 131.332 8.23333 130.899 7.54C130.465 6.82933 130.249 6.01467 130.249 5.096C130.249 4.14267 130.517 3.28467 131.055 2.522C131.609 1.75933 132.441 1.15267 133.551 0.701999C134.66 0.234 136.012 0 137.607 0C138.733 0 139.825 0.121333 140.883 0.364C141.957 0.606666 142.885 0.953332 143.665 1.404L142.911 3.484C141.351 2.652 139.617 2.236 137.711 2.236C136.133 2.236 134.929 2.522 134.097 3.094C133.265 3.64867 132.849 4.37667 132.849 5.278C132.849 6.17933 133.169 6.87267 133.811 7.358C134.452 7.84333 135.371 8.086 136.567 8.086H141.247V10.322H136.463C135.093 10.322 134.019 10.5647 133.239 11.05C132.459 11.5353 132.069 12.2633 132.069 13.234C132.069 14.222 132.511 14.9933 133.395 15.548C134.279 16.1027 135.596 16.38 137.347 16.38C138.56 16.38 139.713 16.2153 140.805 15.886C141.914 15.5393 142.824 15.0713 143.535 14.482L144.419 16.51Z" fill="white"/>
<path opacity="0.9" d="M127.599 4.134C125.831 3.12867 123.942 2.53067 121.931 2.34V18.408H119.357V2.34C117.329 2.53067 115.431 3.12867 113.663 4.134L112.753 2.08C115.076 0.693333 117.693 0 120.605 0C123.552 0 126.187 0.693333 128.509 2.08L127.599 4.134Z" fill="white"/>
<path opacity="0.9" d="M102.69 0C105.117 0 107.032 0.710666 108.436 2.132C109.84 3.536 110.542 5.55533 110.542 8.19V18.408H107.942V13.39H97.4384V18.408H94.8904V8.19C94.8904 5.55533 95.5924 3.536 96.9964 2.132C98.4004 0.710666 100.298 0 102.69 0ZM107.942 11.128V7.956C107.942 6.10133 107.474 4.69733 106.538 3.744C105.62 2.79067 104.337 2.314 102.69 2.314C101.044 2.314 99.7524 2.79067 98.8164 3.744C97.8977 4.69733 97.4384 6.10133 97.4384 7.956V11.128H107.942Z" fill="white"/>
<path opacity="0.9" d="M87.5725 9.204H90.0685V18.408H87.7805V17.186C86.4458 18.1393 84.7558 18.616 82.7105 18.616C81.0638 18.616 79.5298 18.252 78.1085 17.524C76.7045 16.796 75.5778 15.7387 74.7285 14.352C73.8965 12.948 73.4805 11.2927 73.4805 9.386C73.4805 7.58333 73.8965 5.97133 74.7285 4.55C75.5778 3.12867 76.7391 2.01933 78.2125 1.222C79.7031 0.407333 81.3758 0 83.2305 0C84.6865 0 86.0038 0.242666 87.1825 0.728C88.3785 1.196 89.3925 1.88933 90.2245 2.808L88.6125 4.42C87.1565 3.016 85.3971 2.314 83.3345 2.314C81.9478 2.314 80.6998 2.61733 79.5905 3.224C78.4985 3.83067 77.6405 4.67133 77.0165 5.746C76.3925 6.82067 76.0805 8.034 76.0805 9.386C76.0805 10.8247 76.3925 12.0727 77.0165 13.13C77.6578 14.1873 78.4985 14.9933 79.5385 15.548C80.5785 16.0853 81.7051 16.354 82.9185 16.354C83.7678 16.354 84.5911 16.2153 85.3885 15.938C86.2031 15.6433 86.9311 15.2187 87.5725 14.664V9.204Z" fill="white"/>
<path opacity="0.9" d="M62.6943 0C64.8783 0 66.5856 0.658666 67.8163 1.976C69.0469 3.29333 69.6623 5.174 69.6623 7.618V18.408H67.0883V7.696C67.0883 5.928 66.6549 4.59333 65.7883 3.692C64.9216 2.77333 63.7169 2.314 62.1743 2.314C60.5103 2.314 59.2016 2.79933 58.2483 3.77C57.2949 4.74067 56.8183 6.17933 56.8183 8.086V18.408H54.2183V0.207999H56.7143V2.782C57.9449 0.927333 59.9383 0 62.6943 0Z" fill="white"/>
<path opacity="0.9" d="M46.859 2.47001V16.146H50.369V18.408H40.749V16.146H44.259V2.47001H40.749V0.208008H50.369V2.47001H46.859Z" fill="white"/>
<path opacity="0.9" d="M29.2099 0C31.6366 0 33.5519 0.710666 34.9559 2.132C36.3599 3.536 37.0619 5.55533 37.0619 8.19V18.408H34.4619V13.39H23.9579V18.408H21.4099V8.19C21.4099 5.55533 22.1119 3.536 23.5159 2.132C24.9199 0.710666 26.8179 0 29.2099 0ZM34.4619 11.128V7.956C34.4619 6.10133 33.9939 4.69733 33.0579 3.744C32.1392 2.79067 30.8566 2.314 29.2099 2.314C27.5632 2.314 26.2719 2.79067 25.3359 3.744C24.4172 4.69733 23.9579 6.10133 23.9579 7.956V11.128H34.4619Z" fill="white"/>
<path opacity="0.9" d="M14.092 9.204H16.588V18.408H14.3V17.186C12.9653 18.1393 11.2753 18.616 9.23 18.616C7.58333 18.616 6.04933 18.252 4.628 17.524C3.224 16.796 2.09733 15.7387 1.248 14.352C0.416 12.948 0 11.2927 0 9.386C0 7.58333 0.416 5.97133 1.248 4.55C2.09733 3.12867 3.25867 2.01933 4.732 1.222C6.22267 0.407333 7.89533 0 9.75 0C11.206 0 12.5233 0.242666 13.702 0.728C14.898 1.196 15.912 1.88933 16.744 2.808L15.132 4.42C13.676 3.016 11.9167 2.314 9.854 2.314C8.46733 2.314 7.21933 2.61733 6.11 3.224C5.018 3.83067 4.16 4.67133 3.536 5.746C2.912 6.82067 2.6 8.034 2.6 9.386C2.6 10.8247 2.912 12.0727 3.536 13.13C4.17733 14.1873 5.018 14.9933 6.058 15.548C7.098 16.0853 8.22467 16.354 9.438 16.354C10.2873 16.354 11.1107 16.2153 11.908 15.938C12.7227 15.6433 13.4507 15.2187 14.092 14.664V9.204Z" fill="white"/>
</svg>
